<svg xmlns="http://www.w3.org/2000/svg" xmlns:xlink="http://www.w3.org/1999/xlink" style="display:none"><symbol id="icon-arrow-right" viewBox="0 0 60 32">
<path id="arrow-right" d="M47.6,12.5l-8.5-7.9L43.4,0L60,15.5L43.4,31.1l-4.2-4.5l8.5-7.9H0v-6.2H47.6z"/>
</symbol><symbol id="icon-logo" viewBox="0 0 354.88 175.1"><title>williams-logo-v2</title><g id="Layer_2" data-name="Layer 2"><g id="Layer_1-2" data-name="Layer 1"><path d="M351.1,69.34c-4.32-10.22-12.12-19.61-22.6-28-15.74-12.54-37.56-22.83-63.42-30S209.31,0,177.44,0C128.87,0,84.89,9.52,52.78,25.06,36.73,32.85,23.64,42.15,14.45,52.67A62.59,62.59,0,0,0,3.78,69.34a45.75,45.75,0,0,0,0,36.42c4.32,10.22,12.12,19.61,22.6,28,15.74,12.54,37.57,22.84,63.43,30s55.76,11.31,87.63,11.31C226,175.09,270,165.59,302.1,150c16-7.79,29.15-17.09,38.33-27.61a62.1,62.1,0,0,0,10.67-16.67,45.75,45.75,0,0,0,0-36.42Zm-5.53,34.08c-3.81,9-10.9,17.72-20.81,25.63-14.86,11.86-36,21.92-61.29,29s-54.68,11.09-86,11.09c-47.77,0-91-9.41-122-24.46-15.52-7.52-28-16.44-36.43-26.15a56.45,56.45,0,0,1-9.66-15.07,39.7,39.7,0,0,1,0-31.74c3.81-9,10.9-17.72,20.82-25.63,14.86-11.86,36-21.92,61.29-29S146.09,6,177.44,6c47.78,0,91,9.41,122,24.46C315,38,327.45,46.9,335.91,56.61a56.45,56.45,0,0,1,9.66,15.07,39.7,39.7,0,0,1,0,31.74Z"/><path d="M108.1,109.77c-7.4,2.44-10.4,9.62-6.28,15.46a12.48,12.48,0,0,0,11,5.41c5.41,0,7.75-.89,11.33-4.31a9.44,9.44,0,0,0,0-13.15C119.48,108.55,113.87,107.86,108.1,109.77Zm11.72,15.41c-1.2,3.46-3.86,4.71-7.19,4.42a7.48,7.48,0,0,1-6.22-5.62,40,40,0,0,1-.76-4.1c.13-3.49.88-6.79,3.88-8.73,4-2.6,9.81-1.49,11.19,5.64A16.9,16.9,0,0,1,119.82,125.18Z"/><path d="M166.42,125.66c-3-3.27-2.46-10.64.94-13.24,5.69-4.33,10.88-3.59,14.66,3.8.19-2.68.33-4.6.47-6.56-1.7-.2-3.41-.47-5.13-.6-4.33-.33-8.65-.32-12.61,1.79-3.8,2-6.05,5.13-5.74,9.63a9.38,9.38,0,0,0,6,8.38c5.65,2.53,11.36,2.15,17.06.61.24-1.39.45-2.59.67-3.78C177.2,131.41,171.61,131.39,166.42,125.66Z"/><path d="M152,113.27a107.55,107.55,0,0,1,.13,10.78c-4.52-3.63-8.37-7.6-12.42-11.36a18.68,18.68,0,0,0-5.06-3.14c-.92-.42-2.19-.11-3.3-.08-.72,0-1.43.11-2.15.17,3.66,2,3.74,2.1,3.74,6.16,0,2.66,0,5.33,0,8s0,5.3-3.11,6.54H139c-1.87-.89-3.62-1.64-3.65-4,0-3.86,0-7.72,0-11.58l.63-.4q7,7.27,14,14.56c1.2,1.25,2.4,2.3,4.51,1.27,0-3.66,0-7.4,0-11.13,0-3.43-.58-7.1,3.5-9.4h-8.76C150.25,110.88,151.85,112,152,113.27Z"/><path d="M152.4,67.62c3.34,1.07,3.61,3.94,3.68,6.62.17,6.66.16,13.32,0,20-.07,2.71-.4,5.56-3.78,6.54a1.34,1.34,0,0,0-.59,1.15,1.32,1.32,0,0,0,1,.76,11.1,11.1,0,0,0,2-.22,50.67,50.67,0,0,1,7.23-.63c3.37.16,6.71.78,9.59,1.15,2.67-.27,4.82-.39,6.93-.77.58-.11,1.55-1.18,1.44-1.52-.77-2.34.6-4.23,1-6.31.11-.54-.35-1.19-.55-1.8-.55.34-1.44.56-1.58,1-1.48,4.62-5,5.55-9.23,5.23-2.85-.21-4.22-1.45-4.25-4.35-.07-6.82-.15-13.66.05-20.48.07-2.37.21-5.07,3.21-6.16.52-.19.8-1,1.2-1.54-.72-.22-1.53-.78-2.15-.62-3.94,1-7.85,1.6-11.86.42a10.23,10.23,0,0,0-2.67-.45c-.46,0-.93.41-1.4.64C151.9,66.75,152.05,67.51,152.4,67.62Z"/><path d="M100.5,100.69c-.47.16-.72,1-1.18,1.68.79.23,1,.35,1.1.32,5.27-1.11,10.54-1.58,15.8,0a.36.36,0,0,0,.25,0c.4-.19,1.14-.43,1.13-.6,0-.48-.31-1.23-.65-1.33-3.54-1.07-3.58-4.17-3.67-6.86q-.33-10,0-20c.07-2.16.12-4.71,2.77-5.92.67-.31,1.1-1.13,1.65-1.72-.81-.21-1.68-.73-2.4-.57-3.78.82-7.51,1.74-11.37.38a9.56,9.56,0,0,0-2.91-.45c-.46,0-.94.4-1.4.62.24.46.38,1.22.73,1.34,3.3,1.08,3.6,3.94,3.67,6.61.17,6.66.19,13.32,0,20C104,96.77,103.73,99.61,100.5,100.69Z"/><path d="M89.5,129.64a10,10,0,0,1-8.36-3.59c-2.76-3.37-2.9-10,.4-13.07,5.74-5.28,10.95-4.13,15.07,3.16.15-2.6.27-4.53.38-6.47-1.71-.21-3.42-.51-5.13-.61-5.54-.33-10.92-.23-15.41,3.87s-3.69,11.95,1.4,15c6,3.58,12.25,3.2,18.76,1.56.23-1.52.42-2.76.6-4l-.47-.47C95.07,127.86,92.83,129.59,89.5,129.64Z"/><path d="M81.23,56.25c-.22.34-.44.68-.67,1,.57.6,1,1.46,1.73,1.73,2.24.89,3.42,2.35,3.06,4.78a45.92,45.92,0,0,1-1.14,6c-1.56,5.5-3.26,11-4.91,16.43h-.67L67.69,56.72a33,33,0,0,0-3.75,0c-.6.06-1.51.43-1.66.87-1.62,4.57-3.07,9.2-4.63,13.79-1.67,4.9-3.4,9.78-5.17,14.87-.39-.54-.69-.78-.77-1.08-2-6.92-4-13.81-5.79-20.78-.5-2-.49-4.37,2.31-5.37.58-.21.82-1.36,1.22-2.08l-.51-.9c-6.27,2.18-12.55,1.57-19.32.15.43,1.37.43,2.35.87,2.63,2.84,1.77,3.95,4.72,4.88,7.57,2.88,8.91,5.48,17.91,8.18,26.87.94,3.11,1.88,6.23,2.77,9.16h5.49Q57,87,62.31,71.55l.53-.07c3.7,10.42,7.39,20.85,11,31h5.28c.22-.69.46-1.47.71-2.24q5.94-18,11.87-36.06a8.19,8.19,0,0,1,4.3-4.9c.72-.37,1.08-1.45,1.6-2.21L97,56.16C91.71,58.18,86.47,57.59,81.23,56.25Z"/><path d="M231.34,124.56c-1.48,4.74-5.18,4.68-8.89,4.55-1.48-.05-2.68-.64-2.78-2.26-.12-2,0-4.09,0-6.24,3.27.08,6.38-1,8.73,2v-5.86c-2.57,3.17-5.59,2.15-8.57,2.15v-8c3.57.39,7.62-1.58,9.79,3.14v-4.39h-18c3.09,2.33,3.42,2.77,3.44,4.89,0,3.67.07,7.33,0,11s-2.11,4.91-5.48,3.59c-4.14-1.61-5.58-5.59-8-9,.69-.38,1.21-.61,1.67-.92,2.86-1.91,3.78-4.21,2.12-6.7a6.1,6.1,0,0,0-4-2.52c-5.31-.39-10.65-.33-16-.41a1.79,1.79,0,0,0-.1.44c3.52,1.45,3.7,1.74,3.69,5.72,0,2.08.05,4.16,0,6.25-.08,3.12,1.17,6.77-4,8.28h11.79c-3.13-1.51-3.73-3.15-2.85-9.16,2.24-.42,3.74.4,4.82,2.46,2.58,4.89,6.41,7.72,12.26,7a53.28,53.28,0,0,1,6.68-.45c3.22,0,6.45.33,9.68.43,2,.06,4.47.76,4.11-2.82A10.33,10.33,0,0,1,232,125C231.79,124.87,231.57,124.71,231.34,124.56ZM200,118.37c-1.49,2.19-3.89,1.63-6.31,1.54v-9.2c2.54-.59,4.8-.3,6.29,1.83A5,5,0,0,1,200,118.37Z"/><path d="M289.86,100.92c-3.82-.84-3.22-4.29-3.38-6.66-.52-7.53-.52-15.09-.66-22.64,0-1.6.34-3.1,2.17-3.8.51-.2.79-1,1.18-1.52-.63-.2-1.3-.65-1.89-.56-2.49.38-4.9,1.09-7.49.07a3.11,3.11,0,0,0-2.72,1.27c-1.79,3.35-3.33,6.83-4.89,10.3-1.94,4.33-3.8,8.69-5.69,13l-.71,0c-1.8-4.12-3.64-8.23-5.4-12.37-1.45-3.42-2.7-6.92-4.27-10.29-.42-.89-1.84-2.15-2.48-2a20.64,20.64,0,0,1-9.22-.09c-.49-.09-1.11.58-1.67.89.42.38.78.95,1.26,1.09a4.22,4.22,0,0,1,3.22,4.69c-.13,3.22-.32,6.44-.55,9.65-.33,4.69-.82,9.36-1,14-.12,2.32-1.23,4.08-3.21,4.4-.89.15-2.64-1.67-3.16-3q-6-14.75-11.63-29.67c-.77-2-1.07-3.95-3.92-2.71a2.32,2.32,0,0,1-1.72,0c-2.22-1.09-2.91.25-3.56,2-3,8.12-5.91,16.28-9.2,24.28A34.17,34.17,0,0,1,204,99.63c-1.59,2-5,.87-5.73-1.57a15.72,15.72,0,0,1-.68-4.13c-.07-6.66-.18-13.33,0-20,.07-2.16.15-4.7,2.78-5.92.67-.31,1.08-1.16,1.62-1.77a6.47,6.47,0,0,0-2.45-.52c-3.7.8-7.35,1.76-11.13.39a10.17,10.17,0,0,0-3.16-.48c-.46,0-.93.43-1.39.67.25.47.4,1.24.76,1.34,3.4,1,3.59,3.94,3.66,6.6q.27,10,0,20c-.07,2.58-.3,5.42-3.57,6.44-.38.12-.56.85-.84,1.29a4.94,4.94,0,0,0,1.37.7,3.29,3.29,0,0,0,1.45-.17,23.16,23.16,0,0,1,12.17-.15,8.4,8.4,0,0,0,4.17.26,14.79,14.79,0,0,1,9.87,0c.37.15,1-.33,1.48-.51-.3-.51-.48-1.3-.91-1.48-1.32-.53-2.16-1.24-1.8-2.77a27,27,0,0,1,1-3.55c2.15-5.57.62-4.54,6.49-4.59,7-.06,6.93,0,9,6.82.69,2.24.28,3.49-2,4.2-.41.13-.68.71-1,1.08.41.28.82.78,1.25.81a10.77,10.77,0,0,0,2.45-.28c1.86-.31,4-1.44,5.53-.84,6.22,2.48,12.66-.61,18.85,1.12.36.1.91-.46,1.37-.71-.29-.44-.49-1.13-.88-1.27-3.11-1.1-3.59-3.73-3.58-6.42,0-4,.28-7.94.53-11.9.12-1.81.47-3.6.75-5.64.4.42.63.57.71.77q4.88,11.66,9.7,23.32c.48,1.18,1,2.32,2.41,1.83a3.79,3.79,0,0,0,2.13-1.81c1.85-4.58,3.48-9.25,5.27-13.86,1.42-3.65,3-7.26,4.47-10.89l.69.12c.31,6.33.72,12.66.86,19,0,2.15-.19,4.5-2.75,5.62-.37.16-.43,1-.94,2.36,5.47-1.75,10.3-2,15.11-.5a.35.35,0,0,0,.25,0c.29-.22.75-.42.81-.7S290.06,101,289.86,100.92ZM215.41,86.63c1.62-4.51,3.17-8.84,4.72-13.18l.55.13c1.38,4.25,2.75,8.5,4.23,13Z"/><path d="M313.69,80.83a56.5,56.5,0,0,1-7.83-4.72,4.61,4.61,0,0,1-1.77-5.34c.81-2.38,2.71-3.46,5.13-3.63,3.93-.28,6.51,2,7.64,6.57a5.83,5.83,0,0,0,1,1.58,5.24,5.24,0,0,0,.71-1.6c.22-2.61.38-5.22.4-7.83,0-.28-1.06-.77-1.64-.8-1.17-.07-2.37.24-3.54.17-2.22-.12-4.45-.69-6.65-.55-5.44.34-10.78,4.51-10.73,11.12,0,5.62,3.26,8.53,7.76,10.72,2.31,1.13,4.65,2.19,6.89,3.45A5.93,5.93,0,0,1,314,96.34a5.53,5.53,0,0,1-4.63,4.32,8.06,8.06,0,0,1-8.79-5.42c-.52-1.63-1-3.29-1.44-4.89-1.77-.62-2.1.28-2.08,1.71,0,3.41,0,6.82,0,10.4.27.06.8.35,1,.2,2-1.44,3.89-.44,5.89,0a23.24,23.24,0,0,0,6.16.52c6.29-.43,11.37-4.49,11.37-11.62C321.5,85.91,318.14,83.1,313.69,80.83Z"/><path d="M234.33,109.09c-.17,1.73-.36,3.58-.55,5.43l.55.32c1.53-4.66,5.18-3.84,8.94-3.83,0,4.26,0,8.16,0,12.07,0,1.49.3,3.19-.3,4.41s-2.16,1.89-3.36,2.85h11.63c-1.09-1.13-3.1-2.22-3.18-3.44-.36-5.21-.15-10.45-.15-15.92,3.68,0,7.3-.67,8.88,3.9l.65-.3c-.21-2-.43-3.91-.6-5.49Z"/><path d="M121.39,67.67c3.33,1.13,3.5,4.06,3.58,6.72q.25,9.85,0,19.74c-.08,2.67-.3,5.59-3.7,6.6-.33.1-.57.89-.59,1.38,0,.17.74.51,1.16.54a9.18,9.18,0,0,0,1.71-.21,47.43,47.43,0,0,1,7-.64c3.46.18,6.89.81,9.82,1.18,2.71-.28,4.87-.4,7-.79.59-.11,1.56-1.22,1.44-1.53-.88-2.37.56-4.26,1-6.34.11-.51-.25-1.13-.39-1.7-.62.35-1.63.56-1.79,1.06-1.47,4.51-4.88,5.44-9.05,5.17-3.07-.2-4.35-1.36-4.38-4.46-.07-6.83-.16-13.67.06-20.49.07-2.16.16-4.7,2.81-5.9.65-.3,1-1.17,1.55-1.78a6.5,6.5,0,0,0-2.43-.49c-3.7.76-7.35,1.81-11.14.38a8.17,8.17,0,0,0-2.91-.45c-.52,0-1,.47-1.57.73C120.83,66.83,121,67.54,121.39,67.67Z"/><path d="M269.32,129a3.54,3.54,0,0,1-2.07-2.34,38.77,38.77,0,0,1-.09-6c3.25.13,6.37-1.09,8.74,2v-5.86c-2.54,3.32-5.65,2.09-8.61,2.19v-7.68c5.87-1,7.4-.54,9.76,2.81v-4.4H259.37c3.82,1.33,3.18,4.48,3.18,7.33v5.74c0,3,.67,6.23-3.4,7.63,2.42.11,4.6-.16,6.78-.13,3.8,0,7.61.28,11.41.34a1.88,1.88,0,0,0,1.46-1,15.18,15.18,0,0,0,.73-3.43,5.45,5.45,0,0,0-.44-1.66C276.77,128.59,273.36,130.15,269.32,129Z"/></g></g></symbol></svg>